<svg xmlns="http://www.w3.org/2000/svg" xml:space="preserve" fill-rule="evenodd" clip-rule="evenodd"
     style="shape-rendering:geometricPrecision;text-rendering:geometricPrecision;image-rendering:optimizeQuality"
     viewBox="0 0 3150 4500"><defs><style>.str0{stroke:#000;stroke-width:20}.fil2{fill:none}</style></defs>
    <g id="Слой_x0020_1"><g id="_216629224"><path d="M915 3073c-669-23-907 604-322 1067 785 513 1583-984 322-1067z" class="str0" style="fill:red"/><path
        d="M2460 3709c469 253 755-267 542-655-362-577-1472 126-542 655z" class="str0" style="fill:#b50000"/><path
        d="M971 3197c541-787 533-2509 540-2803 235 1389 96 1402 940 2606M2480 3079c24-20 94-47 79-96M855 3256c26 18 71 77 114 50"
        class="fil2 str0"/><path d="M1522 513c-395 93-734 183-1214-127 636-96 804-388 1214 127z" class="str0"
                                 style="fill:#056100"/><path
        d="M1496 538c-355 319-653 601-1300 624 599-467 577-966 1300-624z" class="str0" style="fill:#078700"/><path
        d="M453 3781c265 387 647 416 420-273-113-341-685-114-420 273z"
        style="fill:#fff;fill-opacity:.619608;stroke:#000;stroke-width:20;stroke-opacity:.619608"/><path
        d="M2981 3168c76 314-85 524-333 90-123-215 257-404 333-90z"
        style="fill:#fff;fill-opacity:.160784;stroke:#000;stroke-width:20;stroke-opacity:.160784"/><path
        d="M1486 542c-363 58-381-3-900 392 732-579 900-392 900-392z" class="str0" style="fill:#033800"/></g></g></svg>