<svg xmlns="http://www.w3.org/2000/svg" width="512" height="512">
    <g fill="none" fill-rule="evenodd">
        <path fill="#E34361"
              d="M233.37543 387.84258c0 59.2727-48.0545 107.3272-107.3272 107.3272-59.2864 0-107.32719-48.0545-107.32719-107.3272 0-59.2727 48.04078-90.52733 107.3272-90.52733 59.2727 0 107.32719 31.25463 107.32719 90.52733"/>
        <path fill="#BC395B"
              d="M185.81601 310.22304c14.1119 14.74275 22.58726 34.55974 22.58726 59.34127 0 59.2727-48.0545 107.3272-107.3272 107.3272-18.14385 0-35.2043-4.5394-50.18019-12.4799 19.36443 19.00785 45.87395 30.7609 75.15373 30.7609 59.2727 0 107.3272-48.0545 107.3272-107.3272 0-37.15171-18.88444-63.27723-47.5608-77.62227"/>
        <path fill="#454849"
              d="M126.04412 311.02532c-43.18596 0-93.61301 20.11871-93.61301 76.82686 0 51.60647 41.99283 93.613 93.61301 93.613 51.62019 0 93.61301-42.00653 93.61301-93.613 0-56.70815-50.42705-76.82686-93.613-76.82686m0 197.86823c-66.74694 0-121.04139-54.29445-121.04139-121.04137 0-62.3584 48.6442-104.25522 121.04138-104.25522 72.39717 0 121.04138 41.89683 121.04138 104.25522 0 66.74692-54.29445 121.04137-121.04138 121.04137"/>
        <path fill="#454849"
              d="M126.04412 375.83307c-28.86835 0-41.62254-15.05818-42.98025-16.78616-4.70396-5.92453-3.68911-14.55075 2.24913-19.25472 5.92452-4.70396 14.56446-3.68911 19.26842 2.24913.02743 0 6.14396 6.36338 21.4627 6.36338 15.41474 0 21.50384-6.44567 21.7644-6.71995 4.99197-5.43081 13.54962-6.15767 19.17244-1.37142 5.62281 4.78625 6.62395 12.9462 2.04341 18.73358-1.3577 1.72798-14.1119 16.78616-42.98025 16.78616"/>
        <path fill="#FEFEFE"
              d="M102.16499 400.23334c-28.77236 0-44.15967-20.72213-44.83167-21.62727-3.33254-4.59425-2.3177-11.0262 2.27656-14.35874 4.59425-3.30512 10.98506-2.33142 14.33132 2.20798.53485.71314 11.08106 14.2216 29.96549 13.16561 5.69138-.61713 10.47763 4.1554 10.72449 9.83307.24685 5.66396-4.1554 10.47764-9.83307 10.71078-.89142.04114-1.76913.06857-2.63312.06857"/>
        <path fill="#E34361"
              d="M487.875 387.84258c0 59.2727-48.05449 107.3272-107.32719 107.3272-59.28641 0-107.3272-48.0545-107.3272-107.3272 0-59.2727 48.04079-90.52733 107.3272-90.52733 59.2727 0 107.3272 31.25463 107.3272 90.52733"/>
        <path fill="#BC395B"
              d="M440.3156 310.22304c14.11189 14.74275 22.58725 34.55974 22.58725 59.34127 0 59.2727-48.0545 107.3272-107.3272 107.3272-18.14386 0-35.2043-4.5394-50.18019-12.4799 19.36443 19.00785 45.87394 30.7609 75.15372 30.7609 59.2727 0 107.3272-48.0545 107.3272-107.3272 0-37.15171-18.88443-63.27723-47.56079-77.62227"/>
        <path fill="#454849"
              d="M380.54644 311.02532c-43.18596 0-93.61301 20.11871-93.61301 76.82686 0 51.60647 41.99283 93.613 93.61301 93.613 51.62018 0 93.61301-42.00653 93.61301-93.613 0-56.70815-50.42705-76.82686-93.61301-76.82686m0 197.86823c-66.74693 0-121.04138-54.29445-121.04138-121.04137 0-62.3584 48.6442-104.25522 121.04138-104.25522 72.39717 0 121.04138 41.89683 121.04138 104.25522 0 66.74692-54.29445 121.04137-121.04138 121.04137"/>
        <path fill="#454849"
              d="M380.54644 375.83307c-28.86836 0-41.62255-15.05818-42.98025-16.78616-4.70396-5.92453-3.68911-14.55075 2.24913-19.25472 5.93824-4.70396 14.56446-3.68911 19.26842 2.24913.02743 0 6.14396 6.36338 21.4627 6.36338 15.41474 0 21.50384-6.44567 21.7507-6.71995 4.99196-5.43081 13.56332-6.15767 19.18614-1.37142 5.6091 4.78625 6.61023 12.9462 2.0434 18.73358-1.3577 1.71427-14.11188 16.78616-42.98024 16.78616"/>
        <path fill="#FEFEFE"
              d="M356.6673 400.23334c-28.78607 0-44.17338-20.72213-44.83166-21.62727-3.33255-4.59425-2.3177-11.0262 2.27656-14.35874 4.59425-3.30512 10.98506-2.33142 14.3176 2.20798.49371.64457 10.76564 13.90618 29.9792 13.16561 5.84225-.61713 10.47764 4.1554 10.7245 9.83307.24685 5.66396-4.1554 10.47764-9.83307 10.71078-.89142.04114-1.76913.06857-2.63313.06857"/>
        <path fill="#454849"
              d="M126.04412 370.04705h-.02743c-7.57023-.01371-13.70047-6.17138-13.68675-13.7416.08228-38.90715 20.66727-63.46925 40.58026-87.2085 29.15636-34.77917 59.31385-70.76518 41.00541-161.78621-1.49484-7.43309 3.31883-14.66046 10.7382-16.15531 7.41938-1.5497 14.66047 3.31883 16.15531 10.7382 20.91413 103.96723-16.67644 148.79889-46.87507 184.82605-19.06272 22.7244-34.12089 40.68998-34.17575 69.64062-.01371 7.57023-6.15766 13.68675-13.71418 13.68675"/>
        <path fill="#454849"
              d="M380.53273 375.83307c-6.21253 0-11.83534-4.2514-13.33019-10.57364-.672-2.85255-69.27034-285.48814-214.39382-262.4346-7.39194 1.24799-14.5096-3.90854-15.70274-11.39649-1.17942-7.48794 3.93597-14.5096 11.4102-15.68902 170.12444-26.86609 242.38447 270.5534 245.37416 283.23902 1.7417 7.36451-2.82512 14.74274-10.18964 16.48444-1.05599.24686-2.1257.37029-3.16797.37029"/>
        <path fill="#3BB777"
              d="M393.7532 46.29771C242.51319-46.50617 217.03224 88.61968 217.03224 88.61968S300.94932 197.53772 393.7532 46.2977"/>
        <path fill="#229857" d="M393.7532 46.29771 217.03224 88.61968S300.94932 197.53772 393.7532 46.2977"/>
        <path fill="#454849"
              d="M232.14115 84.99502c9.06508 9.42164 32.06376 29.5952 60.5207 27.7438 27.7575-1.54971 55.24072-22.3267 81.83252-61.82354-41.59512-23.14955-75.51029-29.23864-100.97753-18.0753-26.31751 11.56106-37.54943 39.634-41.37569 52.15504m57.13329 55.28187c-49.16535 0-81.7091-41.47169-83.10795-43.29567-2.38627-3.09941-3.33255-7.07652-2.6057-10.9165.43886-2.3314 11.28678-57.243 58.66928-78.2257C298.86065-8.39856 345.5163.61166 400.9216 34.60913c6.45938 3.9634 8.47537 12.41133 4.52568 18.8707-33.99746 55.37788-71.51946 84.54794-111.52373 86.65993-1.56342.096-3.11312.13714-4.64911.13714"/>
    </g>
</svg>