<svg xmlns="http://www.w3.org/2000/svg" width="512" height="512">
    <g fill="none" fill-rule="evenodd">
        <path fill="#FAD841"
              d="M406.49083 407.20467c59.80886-59.36295 85.70661-138.25832 75.97724-209.35635l.04723.01563s-8.45416-64.47263 2.70785-94.02129c15.69609-26.09532 7.36788-49.47172-9.76085-66.47275-17.12873-16.9854-40.68073-25.25152-66.95632-9.67246-29.77061 11.0788-94.72753 2.68767-94.72753 2.68767v.03125c-71.63209-9.6412-151.10435 16.04784-210.9132 75.42641-59.8246 59.36295-85.70661 138.2427-75.99298 209.34073h-.0315s8.45417 64.47263-2.70784 94.02128c-15.69609 26.0797-7.36787 49.4561 9.76085 66.45712 17.11299 17.00103 40.66499 25.26715 66.95632 9.68809 29.77061-11.0788 94.72753-2.68767 94.72753-2.68767l-.01574-.04687c71.63209 9.65683 151.12009-16.04784 210.92894-75.4108"/>
        <path fill="#FAAC28"
              d="M482.51058 197.85926s-3.43204-26.31409-3.00697-53.03444c-3.21164-3.39083-5.74631-10.86003-7.38362-23.32953h-.04723c11.47688 83.92692-19.0809 177.0419-89.68967 247.13987-66.53125 66.03522-171.2243 99.67787-253.82947 93.81815-4.75448 4.60965-12.64189 12.20386-22.43423 21.25128 31.51812-8.51614 89.45352-1.04694 89.45352-1.04694v-.04688c71.63209 9.65683 151.10434-16.03222 210.9132-75.41079 59.8246-59.36295 85.7066-138.2427 75.97724-209.34072h.04723Z"/>
        <path fill="#454849"
              d="M42.59669 314.27408c1.35392 10.87565 7.96612 69.4573-3.73117 100.42791a16.15107 16.15107 0 0 1-1.22798 2.51578c-10.01274 16.64163-7.5253 32.59571 7.38362 47.39348 14.90892 14.79776 30.95136 17.25104 47.76522 7.32856.8029-.4844 1.65305-.89067 2.53467-1.21882 32.5257-12.07885 95.23132-4.4534 102.28432-3.56271 69.66417 9.3443 143.54755-17.18854 197.75179-71.00428 54.21998-53.81574 80.95213-127.14827 71.52188-196.18368-.06297-.4219-.1102-.81255-.12595-1.23445-1.36966-10.9069-7.96611-69.44168 3.73117-100.38104.33061-.87505.73994-1.71885 1.21224-2.51577 10.02849-16.67288 7.54104-32.61134-7.36788-47.42473-14.92466-14.79777-30.98284-17.26667-47.76522-7.29732-.8029.4844-1.65304.87506-2.53467 1.21883-31.0773 11.57882-89.79987 5.10968-101.0406 3.70334-.45655-.03125-.88162-.0625-1.33818-.125-69.50674-9.42245-143.43735 17.15728-197.65732 70.97302-54.21998 53.81574-80.95213 127.14827-71.52189 196.1993.06298.39065.09446.79693.12595 1.18758M72.82385 509.2858c-17.71123.01563-34.98164-7.5942-50.06374-22.57948-24.90592-24.72024-29.59743-55.31583-12.95675-84.1457 7.47808-21.79818 3.60522-68.81663 1.4169-85.3645-.04723-.34377-.07872-.67192-.09446-1.01569C.81393 237.8476 30.88366 155.15513 91.73158 94.79212 152.53226 34.4291 235.7829 4.52106 314.67267 14.7873c.37784.01563.75568.04688 1.13352.10938 16.70365 2.12513 64.09103 5.96911 86.00573-1.42196 29.06216-16.53224 59.87183-11.87571 84.77775 12.84453 24.90593 24.72023 29.59744 55.31583 12.95675 84.16131-7.47807 21.79819-3.60522 68.7854-1.4169 85.36451.03149.32815.06298.68755.09446 1.03132 10.31188 78.3172-19.75786 160.99406-80.60577 221.3727-61.09981 60.6599-144.8385 90.52107-224.05887 79.8798-.07871-.01563-.14169-.01563-.2204-.03125-30.22717-3.6096-68.08985-4.46902-85.80108 1.46884-11.46113 6.50039-23.17416 9.71933-34.714 9.71933"/>
        <path fill="#FCB72C"
              d="M239.61484 377.21849c-6.0297 7.06292-16.68792 7.93798-23.8039 1.95324-7.11597-5.98473-7.9976-16.5635-1.96791-23.62642 6.02969-7.06292 16.68791-7.93798 23.8039-1.95324 7.11597 5.98473 7.9976 16.5635 1.9679 23.62642M283.30411 348.52145c-6.02969 7.06293-16.68791 7.93798-23.8039 1.95324-7.11597-5.98473-7.9976-16.5635-1.9679-23.62642 6.02968-7.06293 16.6879-7.93798 23.80389-1.95324 7.11597 5.98473 7.9976 16.5635 1.96791 23.62642M270.56777 407.29374c-5.44719 7.51607-16.01095 9.20367-23.56774 3.7971-7.57254-5.40658-9.28856-15.89158-3.84137-23.39203 5.46293-7.51608 16.01095-9.2193 23.58348-3.7971 7.57254 5.40657 9.27282 15.87595 3.82563 23.39203M316.45796 386.4753c-8.81626 7.60983-22.18233 6.67227-29.84933-2.07825-7.667-8.75053-6.7224-22.01695 2.09386-29.62679 8.832-7.60983 22.18234-6.67227 29.84933 2.07825 7.667 8.75053 6.7224 22.01695-2.09386 29.62679M365.61646 360.05964c-5.80928 6.79729-16.07392 7.64109-22.92227 1.89074-6.86408-5.76597-7.71422-15.95408-1.90494-22.767 5.80929-6.79728 16.07393-7.64108 22.92227-1.89073 6.86409 5.76597 7.71422 15.95408 1.90494 22.767M397.24478 326.79358c-5.62036 6.59415-15.57014 7.4067-22.19807 1.82823-6.64368-5.57846-7.46233-15.45405-1.84197-22.0482 5.62036-6.57852 15.57014-7.39107 22.19807-1.8126 6.64368 5.57845 7.46234 15.43842 1.84197 22.03257M177.64442 439.9879c-5.62036 6.59414-15.57014 7.40669-22.19807 1.82823-6.64368-5.57846-7.46233-15.45406-1.84197-22.03258 5.62036-6.59415 15.57014-7.4067 22.19808-1.82824 6.64368 5.57847 7.46233 15.43844 1.84196 22.03258M221.8611 424.36195c-5.62036 6.59415-15.57014 7.4067-22.19807 1.82824-6.64369-5.57846-7.46234-15.45406-1.84197-22.03258 5.62036-6.59415 15.57014-7.4067 22.19807-1.82823 6.64368 5.57846 7.46233 15.43842 1.84197 22.03257M332.62162 327.64207c-6.31307 7.4067-17.49082 8.32862-24.95315 2.047-7.4466-6.266-8.37545-17.36042-2.06238-24.7515 6.32882-7.40669 17.49083-8.32862 24.95316-2.06262 7.46233 6.28163 8.37544 17.36042 2.06237 24.76712"/>
        <path fill="#FEFEFE"
              d="M79.81074 225.81406c-1.6688 0-3.35333-.34377-4.97489-1.09381-5.90374-2.73454-8.4699-9.68808-5.73057-15.56344 13.90135-29.6424 33.02948-56.65966 56.89635-80.34858 19.17535-19.04802 40.68072-35.15837 63.9336-47.87788 5.69908-3.10957 12.87803-1.0782 16.04244 4.59402 3.14866 5.68784 1.07054 12.81327-4.64428 15.93846-21.3007 11.65695-41.02708 26.42347-58.64385 43.92452-21.89895 21.72006-39.45275 46.5028-52.1576 73.64506-2.01515 4.2815-6.26584 6.78166-10.7212 6.78166M242.1196 64.16371c6.50199 5.46908 7.32064 15.14154 1.79474 21.59505-5.51017 6.46914-15.25528 7.26606-21.75727 1.79698-6.50199-5.46907-7.32064-15.14153-1.79473-21.61067 5.51016-6.45351 15.25527-7.25044 21.75726-1.78136"/>
    </g>
</svg>