<svg xmlns="http://www.w3.org/2000/svg" width="512" height="512" viewBox="0 0 33.86667 33.86667">
    <g transform="matrix(.31118 0 0 .31118 -129.6745 -478.48249)">
        <path
            d="M452.70117 1543.748c-8.23268.7803-14.70302 5.402-19.30859 11.0372-4.60557 5.6352-7.70605 12.3496-10.14453 18.5976a5.41374 5.41374 0 0 0 9.13476 5.5117c3.79862-4.3869 8.69152-6.0355 14.73633-7.1289s12.88326-1.2522 19.42578-3.8926c3.29492-1.3296 4.94431-3.4315 6.36133-5.1308 1.41702-1.6993 2.38867-3.2324 2.38867-3.2324a5.41374 5.41374 0 0 0-.43359-6.3965s-8.65114-10.6455-22.16016-9.3653z"
            style="fill:#000;fill-rule:evenodd;stroke:none;stroke-width:7.19274807;stroke-linecap:round;stroke-linejoin:round;stroke-miterlimit:4;stroke-dasharray:none;stroke-opacity:1"
            transform="translate(-.00068 .00277)"/>
        <path
            d="M471.24805 1538.1738a5.39418 5.39418 0 0 0-5.38477 4.8418c-.77691 7.5583-1.03772 15.2595-.16406 23.0762a5.39418 5.39418 0 0 0 .61328 1.9629c1.09893 2.0358 4.45392 4.0109 6.77148 3.8066 2.31757-.2042 3.30215-1.0179 3.94141-1.3652a5.39418 5.39418 0 0 0 2.67578-5.9785c-1.22292-5.1822-1.04419-11.3627-.11523-18.1035a5.39418 5.39418 0 0 0-.92188-3.8262c-1.80695-2.5861-4.82521-3.7727-5.3164-3.9824a5.39418 5.39418 0 0 0-2.09961-.4317z"
            style="fill:#000;fill-opacity:1;fill-rule:evenodd;stroke:none;stroke-width:7.19274807;stroke-linecap:round;stroke-linejoin:round;stroke-miterlimit:4;stroke-dasharray:none;stroke-opacity:1"/>
        <path
            d="M472.77344 1554.2637c-28.05175-.5729-46.30883 22.0334-47.70117 44.0312-.88531 13.987 4.89865 25.9064 13.45898 34.1387 8.56033 8.2322 19.82194 13.0532 30.78516 13.5039 11.11263.4569 23.0187-2.496 32.58789-9.9102 9.56918-7.4141 16.5063-19.4143 17.44336-35.6386 1.33772-23.1602-20.59705-45.5944-46.57422-46.125z"
            style="fill:#000;fill-opacity:1;fill-rule:evenodd;stroke:none;stroke-width:7.19274807;stroke-linecap:round;stroke-linejoin:round;stroke-miterlimit:4;stroke-dasharray:none;stroke-opacity:1"/>
        <path id="c"
              d="M472.67196 1559.2524c-25.3345-.5174-41.38794 19.8639-42.6218 39.3578-1.57855 24.9394 20.25924 41.5524 39.47148 42.3423 20.14403.8282 43.11352-10.862 44.84552-40.8501 1.13323-19.6198-18.65479-40.3794-41.6952-40.85z"
              style="fill:#f95;fill-opacity:1;fill-rule:evenodd;stroke:none;stroke-width:4.125;stroke-linecap:round;stroke-linejoin:round;stroke-miterlimit:4;stroke-dasharray:none;stroke-opacity:1"/>
        <path id="b"
              d="M471.05799 1565.4926c-.81685-7.3085-.58047-14.617.17077-21.9255 1.00462.429 2.00921.6727 3.01383 2.1105-.97403 7.0679-1.25355 13.8863.20778 20.0788-1.25949.6842-2.51717 1.3576-3.39238-.2638z"
              style="fill:#a05a2c;fill-opacity:1;fill-rule:evenodd;stroke:none;stroke-width:4.125;stroke-linecap:round;stroke-linejoin:round;stroke-miterlimit:4;stroke-dasharray:none;stroke-opacity:1"/>
        <path id="a"
              d="M428.29036 1575.3512c9.81212-11.3317 25.7514-8.2694 36.22855-12.4976 3.00481-1.2126 6.20797-6.2487 6.20797-6.2487s-7.14039-8.4524-17.51681-7.469c-13.13041 1.2444-20.23671 14.2162-24.91971 26.2153z"
              style="fill:#5aa02c;fill-rule:evenodd;stroke:none;stroke-width:4.125;stroke-linecap:round;stroke-linejoin:round;stroke-miterlimit:4;stroke-dasharray:none;stroke-opacity:1"/>
    </g>
    <path
        d="M556.34552 1839.9048c.54156.2157-.31598 3.137-1.14226 7.9018-.81516 4.7006-1.59245 11.3614-.0693 18.2591.0188.087.0379.1733.0574.2601.964 4.289 2.67809 7.9993 4.69984 11.0256 4.54407 6.84 9.84803 10.0036 9.47603 10.634-.16014.2714-6.36668-1.1835-12.20996-8.6518-2.5057-3.2182-4.60829-7.3397-5.69153-12.1716-.0219-.098-.0433-.1952-.0642-.2927-1.63792-7.7863-.35867-14.9238 1.18163-19.7128 1.56047-4.8516 3.34448-7.4181 3.76234-7.2517z"
        style="opacity:1;fill:#000;fill-opacity:1;fill-rule:evenodd;stroke:none;stroke-width:6.12546301;stroke-linecap:round;stroke-linejoin:round;stroke-miterlimit:4;stroke-dasharray:none;stroke-dashoffset:0;stroke-opacity:1"
        transform="matrix(.31118 0 0 .31118 -163.80657 -558.70742)"/>
</svg>