<svg xmlns="http://www.w3.org/2000/svg" xml:space="preserve" viewBox="0 0 800 800"><g fill-rule="evenodd" clip-rule="evenodd"><path fill="#48A217" d="M716.98 119.27s163.19 260.45-80.773 492.87c-328.02 278.57-643.32-54.34-610.94-83.217 32.368-28.88 691.71-409.65 691.71-409.65z"/><path
    fill="#A2F077"
    d="M702.15 125.86s145.82 237.39-82.039 462.38c-308.63 271.14-627.22-30.44-594.85-59.32 32.378-28.88 676.89-403.06 676.89-403.06z"/><path
    fill="#D23056"
    d="m666.75 140.77 19.73 32.29 19.74 60.4 8.96 88.5-14.35 95.68-18.53 48.43-24.53 43.07-37.66 39.48-72.96 47.23-79.54 32.9-123.79 20.93-81.92-7.77-50.23-9.58-89.1-41.26-49.034-50.23-24.514-37.08z"/><path
    d="M706.5 108.78c30.878-.096 54.3 49.746 66.46 87.829 55.034 172.4-18.534 338.38-113.93 422.51-77.779 68.574-188 106.63-308.58 113.93-129.36 7.842-226.48-47.926-296.71-116.31-17.447-16.98-52.44-56.13-47.466-87.82 3.38-21.627 46.747-45.387 75.954-64.084 178.04-114.02 336.64-211.71 524.58-310.95 26.49-14 70.51-45.01 99.69-45.11zm-28.48 35.61c30.888 57.632 45.191 126.19 40.353 204.13-9.088 146.23-110.04 236.97-237.36 280.1-159.68 54.088-365.41 16.004-427.26-116.31-10.808 4.23-17.926 12.141-28.483 16.613 51.576 116.17 192.72 192.98 356.05 180.4 203.73-15.693 371.5-164.12 384.53-358.42 5.641-84.221-9.61-166.62-54.6-223.12-.135-1.449-.348-2.811-2.376-2.371-8.96 7.65-20.54 12.69-30.85 18.98zm-325.2 182.77c-101.4 60.32-207.31 113.23-294.33 185.15 104.99 193.98 459.94 154.11 588.67 4.742 65.098-75.529 90.104-262.38 23.73-365.54h-4.742c-106.59 54.53-210.99 114.78-313.33 175.65z"/><path
    d="M647.16 296.31c-10.519-.56-16.951-5.206-18.989-14.246 4.2-23.24 37.05 1.23 18.99 14.25zM559.34 386.5c-1.922 2.048-6.51 1.41-7.128 4.752-43.23-4.43 6.64-48.77 7.13-4.75zM632.91 369.88c15.482-.444 25.16 4.906 23.74 21.364-15.82 15.66-44.33-7.41-23.74-21.36zM440.65 438.72c19.587-4.057 28.076 13.947 21.354 28.482-14.46 6.96-30.28-12.3-21.35-28.48zM566.45 493.32c-1.912 2.037-6.5 1.41-7.118 4.742-18.196 0-22.069-14.334-26.116-28.482 10.43-20 38.57-.74 33.24 23.74zM321.97 493.32c13.696-1.643 12.769 29.4 2.376 30.857-22.31 2.45-18.81-29.57-2.38-30.86zM208.03 507.56c10.653 13.928 1.893 33.369-9.494 33.234-17.66-.21-14.07-33.95 9.49-33.23zM416.91 581.14c-27.41 3.438-29.535-31.873-11.87-33.234 10.98-.85 23.8 19.55 11.87 33.23zM253.12 566.9c21.77-9.842 25.788 36.238 2.376 33.234-15.96-2.04-15.15-27.45-2.38-33.23z"/></g></svg>