<svg xmlns="http://www.w3.org/2000/svg" width="512" height="512">
    <g fill="none" fill-rule="evenodd">
        <path fill="#3BB777"
              d="M255.54338 378.015c135.36653 0 245.09126-109.93636 245.09126-245.54058H10.45211c0 135.60422 109.72474 245.54058 245.09127 245.54058"/>
        <path fill="#229857"
              d="M458.84186 132.47232c0 128.5487-98.62792 233.96283-224.1933 244.58798 6.89632.58622 13.8449.9526 20.89795.9526 135.35609 0 245.09127-109.92588 245.09127-245.54058h-41.79592Z"/>
        <path fill="#454849"
              d="M21.12784 142.93627c5.47526 124.79064 108.53355 224.61478 234.42285 224.61478 125.87886 0 228.9267-99.82414 234.41241-224.61478H21.12784Zm234.42285 245.55105C114.63575 388.48732 0 273.63094 0 132.46814 0 126.67926 4.68114 122 10.44898 122h490.19298c5.76784 0 10.44898 4.67926 10.44898 10.46814 0 141.1628-114.63576 256.01918-255.54025 256.01918Z"/>
        <path fill="#E34361"
              d="M255.54338 333.55997c110.85322 0 200.71445-90.02597 200.71445-201.09288H54.82893c0 111.06691 89.86123 201.09288 200.71445 201.09288"/>
        <path fill="#454849"
              d="M65.56108 142.93627c5.43347 100.2638 88.576 180.1566 189.98334 180.1566 101.4178 0 184.54988-79.8928 189.98335-180.1566H65.56107Zm189.98334 201.09288c-116.43297 0-211.16342-94.90412-211.16342-211.56101C44.381 126.67926 49.05169 122 54.82998 122h401.43934c5.76784 0 10.44898 4.67926 10.44898 10.46814 0 116.6569-94.73045 211.56101-211.17388 211.56101Z"/>
        <path fill="#BC395B"
              d="M414.46713 132.47232c0 103.99046-78.79575 189.51512-179.81649 199.99373 6.86498.71183 13.83445 1.09915 20.89796 1.09915 110.85323 0 200.71445-90.03643 200.71445-201.09288h-41.79592Z"/>
        <path fill="#454849"
              d="M65.56108 142.93627c5.43347 100.2638 88.576 180.1566 189.98334 180.1566 101.4178 0 184.54988-79.8928 189.98335-180.1566H65.56107Zm189.98334 201.09288c-116.43297 0-211.16342-94.90412-211.16342-211.56101C44.381 126.67926 49.05169 122 54.82998 122h401.43934c5.76784 0 10.44898 4.67926 10.44898 10.46814 0 116.6569-94.73045 211.56101-211.17388 211.56101Z"/>
        <path fill="#454849"
              d="M265.95892 226.83105c0 5.76794-4.66024 10.43673-10.41763 10.43673-5.74694 0-10.41763-4.66879-10.41763-10.43673 0-5.76795 4.6707-22.35994 10.41763-22.35994 5.75739 0 10.41763 16.592 10.41763 22.35994M177.25022 209.36182c-2.99886 4.92003-1.46286 11.337 3.44816 14.34135 4.90058 3.01482 11.31625 1.46554 14.3151-3.44402 3.00931-4.92002 7.68-21.51202 2.76899-24.52684-4.90058-3.00435-17.5334 8.70949-20.53225 13.62951M144.42998 185.11343c-5.13045 2.60657-11.39984.55482-14.00164-4.58504-2.6018-5.13985-.5538-11.42073 4.57666-14.0273 5.13045-2.60657 22.016-5.9459 24.6178-.80605 2.60179 5.13986-10.06238 16.81183-15.19282 19.4184M332.2671 209.36182c2.99886 4.92003 1.46286 11.337-3.44816 14.34135-4.90057 3.01482-11.31625 1.46554-14.3151-3.44402-3.0093-4.92002-7.68-21.51202-2.76898-24.52684 4.90057-3.00435 17.53338 8.70949 20.53224 13.62951M365.0884 185.11343c5.13044 2.60657 11.39983.55482 14.00162-4.58504 2.6018-5.13985.5538-11.42073-4.57665-14.0273-5.13045-2.60657-22.016-5.9459-24.6178-.80605-2.60179 5.13986 10.06237 16.81183 15.19282 19.4184"/>
        <path fill="#FEFEFE"
              d="M131.35726 242.35215c-2.0062 0-4.00196-.76417-5.53796-2.29252-12.69551-12.69785-23.58335-29.70857-31.47233-49.18977-1.63004-4.01976.30302-8.59434 4.31543-10.23783 4.0124-1.6121 8.57861.3245 10.20865 4.3338 7.1053 17.5446 16.80196 32.7548 28.02417 43.97664 3.06155 3.06716 3.06155 8.02906.01045 11.1067-1.536 1.5388-3.5422 2.30298-5.54841 2.30298M99.51713 157.47965c4.31543 3.66385 4.85877 10.14362 1.19118 14.46696-3.65714 4.33381-10.12506 4.86769-14.44049 1.20384-4.31543-3.66385-4.85878-10.14362-1.19118-14.47743 3.65714-4.32334 10.12506-4.85722 14.44049-1.19337"/>
    </g>
</svg>